<svg width="24" height="24" viewBox="0 0 24 24" fill="none" xmlns="http://www.w3.org/2000/svg">
<circle cx="12" cy="12" r="12" fill="#70CFCB"/>
<path d="M16.3726 11.2849C16.387 9.4945 14.9098 7.8529 13.0798 7.6261L12.9598 7.6081C12.8681 7.58988 12.7749 7.57945 12.6814 7.5769C12.3058 7.5769 12.2062 7.8481 12.1798 8.0101C12.1648 8.07738 12.1635 8.14698 12.1759 8.21479C12.1882 8.2826 12.214 8.34724 12.2518 8.4049C12.3766 8.5789 12.595 8.6089 12.7702 8.6353C12.8218 8.6425 12.871 8.6485 12.9106 8.6593C14.5558 9.0373 15.1102 9.6337 15.3802 11.3173C15.3874 11.3593 15.3898 11.4097 15.3922 11.4637C15.4042 11.6641 15.4294 12.0829 15.8662 12.0829C15.9022 12.0829 15.9406 12.0805 15.9814 12.0733C16.3882 12.0097 16.375 11.6269 16.369 11.4433C16.366 11.399 16.366 11.3545 16.369 11.3101C16.3703 11.3022 16.3711 11.2941 16.3714 11.2861L16.3726 11.2849Z" fill="white"/>
<path d="M12.5759 6.96812C12.6239 6.97172 12.6719 6.97532 12.7091 6.98132C15.4091 7.41092 16.6523 8.73092 16.9967 11.5413C17.0027 11.5893 17.0027 11.6469 17.0039 11.7093C17.0075 11.9289 17.0147 12.3849 17.4899 12.3945H17.5043C17.5695 12.398 17.6347 12.3875 17.6956 12.3637C17.7564 12.3399 17.8115 12.3033 17.8571 12.2565C18.0047 12.0969 17.9951 11.8605 17.9867 11.6685C17.9843 11.6229 17.9819 11.5785 17.9831 11.5401C18.0167 8.66612 15.6071 6.05972 12.8255 5.96372L12.7919 5.96492C12.7811 5.9665 12.7703 5.9673 12.7595 5.96732C12.7319 5.96732 12.6971 5.96492 12.6611 5.96252C12.6132 5.95815 12.5651 5.95574 12.5171 5.95532C12.0743 5.95532 11.9903 6.27932 11.9795 6.47372C11.9555 6.92132 12.3743 6.95372 12.5759 6.96812ZM16.8659 15.1725C16.8081 15.1273 16.7509 15.0812 16.6943 15.0345C16.3991 14.7897 16.0847 14.5641 15.7823 14.3457C15.719 14.3002 15.6558 14.2546 15.5927 14.2089C15.2039 13.9281 14.8547 13.7901 14.5247 13.7901C14.0807 13.7901 13.6931 14.0445 13.3727 14.5449C13.2311 14.7657 13.0583 14.8737 12.8471 14.8737C12.6996 14.8685 12.5551 14.8312 12.4235 14.7645C11.1695 14.1765 10.2731 13.2765 9.76066 12.0885C9.51346 11.5125 9.59266 11.1381 10.0295 10.8321C10.2767 10.6593 10.7375 10.3365 10.7051 9.71852C10.6691 9.01652 9.16786 6.90452 8.53546 6.66452C8.26569 6.56271 7.96821 6.56186 7.69786 6.66212C6.97186 6.91412 6.44986 7.35812 6.18946 7.94252C5.93746 8.50892 5.94946 9.17252 6.22306 9.86372C7.01146 11.8629 8.11906 13.6053 9.51826 15.0429C10.8863 16.4505 12.5687 17.6025 14.5175 18.4689C14.6927 18.5469 14.8775 18.5889 15.0119 18.6201L15.1259 18.6489C15.1415 18.6534 15.1576 18.6558 15.1739 18.6561H15.1895C16.1063 18.6561 17.2067 17.7921 17.5451 16.8057C17.8415 15.9417 17.3003 15.5157 16.8659 15.1737V15.1725ZM12.9815 9.25172C12.8255 9.25532 12.4979 9.26372 12.3827 9.60692C12.3299 9.76772 12.3359 9.90692 12.4019 10.0209C12.4991 10.1889 12.6863 10.2405 12.8555 10.2681C13.4699 10.3701 13.7867 10.7217 13.8491 11.3721C13.8791 11.6769 14.0771 11.8881 14.3315 11.8881C14.3507 11.8885 14.3699 11.8877 14.3891 11.8857C14.6951 11.8473 14.8427 11.6157 14.8295 11.1957C14.8343 10.7565 14.6123 10.2597 14.2343 9.86372C13.8551 9.46532 13.3979 9.24092 12.9815 9.25172Z" fill="white"/>
</svg>
