<svg width="70" height="100" viewBox="0 0 70 100" fill="none" xmlns="http://www.w3.org/2000/svg">
<g clip-path="url(#clip0_23_266)">
<path d="M12.5287 88.2779L11.2025 88.656C11.1191 88.4335 10.9961 88.2167 10.8334 88.0069C10.6749 87.7924 10.4581 87.6158 10.1828 87.477C9.90758 87.3382 9.55521 87.2691 9.12562 87.2691C8.53762 87.2691 8.04757 87.4055 7.65557 87.6789C7.2677 87.948 7.07378 88.2905 7.07378 88.7064C7.07378 89.0765 7.20725 89.3686 7.47413 89.5831C7.74105 89.7976 8.15809 89.9761 8.72527 90.1191L10.1516 90.4723C11.0107 90.6826 11.6509 91.0041 12.0721 91.4368C12.4933 91.8658 12.7039 92.4186 12.7039 93.0952C12.7039 93.6504 12.5454 94.1462 12.2284 94.5835C11.9156 95.0209 11.4778 95.3653 10.9147 95.6177C10.3517 95.87 9.69697 95.9962 8.95048 95.9962C7.97043 95.9962 7.15927 95.7817 6.51703 95.3527C5.87479 94.9242 5.46819 94.2976 5.29717 93.4737L6.69842 93.1205C6.83189 93.642 7.08421 94.0331 7.4554 94.2934C7.83071 94.5541 8.32075 94.6845 8.92544 94.6845C9.61358 94.6845 10.1599 94.5373 10.5644 94.2429C10.9732 93.9448 11.1775 93.5873 11.1775 93.1709C11.1775 92.8349 11.0607 92.5532 10.8272 92.3261C10.5936 92.0948 10.235 91.9223 9.75121 91.8092L8.14974 91.4307C7.26978 91.2205 6.62337 90.8948 6.21051 90.4532C5.80182 90.0078 5.59743 89.4508 5.59743 88.7821C5.59743 88.2359 5.74967 87.7522 6.0541 87.3321C6.36275 86.9116 6.78187 86.5817 7.3115 86.342C7.84531 86.1022 8.45005 85.9826 9.12562 85.9826C10.0765 85.9826 10.823 86.1929 11.3652 86.613C11.9115 87.0335 12.2994 87.5882 12.5287 88.2779ZM19.182 95.9962C18.3146 95.9962 17.5535 95.7882 16.8987 95.3719C16.2481 94.9555 15.7393 94.3733 15.3724 93.6251C15.0095 92.877 14.8281 92.0022 14.8281 91.0018C14.8281 89.9929 15.0095 89.1125 15.3724 88.3597C15.7393 87.6074 16.2481 87.0228 16.8987 86.6069C17.5535 86.1906 18.3146 85.9826 19.182 85.9826C20.0495 85.9826 20.8085 86.1906 21.4591 86.6069C22.1138 87.0228 22.6226 87.6074 22.9855 88.3597C23.3524 89.1125 23.536 89.9929 23.536 91.0018C23.536 92.0022 23.3524 92.877 22.9855 93.6251C22.6226 94.3733 22.1138 94.9555 21.4591 95.3719C20.8085 95.7882 20.0495 95.9962 19.182 95.9962ZM19.182 94.6592C19.8409 94.6592 20.3831 94.4891 20.8085 94.1485C21.2339 93.8078 21.5488 93.3602 21.7531 92.8055C21.9574 92.2504 22.0596 91.6494 22.0596 91.0018C22.0596 90.3546 21.9574 89.7513 21.7531 89.192C21.5488 88.6331 21.2339 88.1812 20.8085 87.8363C20.3831 87.4915 19.8409 87.3195 19.182 87.3195C18.5231 87.3195 17.9809 87.4915 17.5556 87.8363C17.1302 88.1812 16.8153 88.6331 16.6109 89.192C16.4066 89.7513 16.3044 90.3546 16.3044 91.0018C16.3044 91.6494 16.4066 92.2504 16.6109 92.8055C16.8153 93.3602 17.1302 93.8078 17.5556 94.1485C17.9809 94.4891 18.5231 94.6592 19.182 94.6592ZM30.4207 86.1088V87.37H25.2411V86.1088H30.4207ZM26.7925 95.7943V84.7719C26.7925 84.2167 26.9217 83.7546 27.1803 83.3845C27.4389 83.0148 27.7746 82.7373 28.1874 82.5522C28.6003 82.3672 29.0362 82.2747 29.4949 82.2747C29.8577 82.2747 30.1538 82.3041 30.3832 82.363C30.6126 82.4219 30.7836 82.4765 30.8962 82.527L30.4707 83.8134C30.3957 83.7882 30.2914 83.7564 30.158 83.7186C30.0287 83.6807 29.8577 83.662 29.645 83.662C29.1571 83.662 28.8047 83.7859 28.5878 84.034C28.3752 84.2821 28.2688 84.6457 28.2688 85.1251V95.7943H26.7925ZM37.0208 86.1088V87.37H32.0414V86.1088H37.0208ZM33.4927 83.7882H34.969V93.0195C34.969 93.4401 35.0295 93.7555 35.1504 93.9658C35.2755 94.1714 35.434 94.3102 35.6259 94.3817C35.8219 94.449 36.0283 94.4826 36.2451 94.4826C36.4078 94.4826 36.5413 94.4742 36.6455 94.4574C36.7498 94.4363 36.8332 94.4195 36.8958 94.4069L37.196 95.7438C37.0959 95.7817 36.9562 95.8195 36.7769 95.8574C36.5976 95.8994 36.3703 95.9205 36.095 95.9205C35.678 95.9205 35.2693 95.8298 34.8689 95.6494C34.4728 95.4686 34.1433 95.1934 33.8805 94.8233C33.622 94.4532 33.4927 93.9868 33.4927 93.4233V83.7882Z" fill="#CE9FFC"/>
<path d="M41.9711 82.8804V95.7944H39.3062V82.8804H41.9711ZM47.1979 95.9771C46.5851 95.9771 46.0388 95.8701 45.5591 95.6556C45.0795 95.4369 44.7 95.1154 44.4206 94.6907C44.1454 94.2621 44.0077 93.728 44.0077 93.0893C44.0077 92.5509 44.1057 92.0991 44.3017 91.7336C44.4978 91.3678 44.7647 91.0734 45.1025 90.8505C45.4403 90.628 45.824 90.4598 46.2535 90.3463C46.6871 90.2327 47.1418 90.1528 47.6175 90.1065C48.1761 90.0477 48.6267 89.993 48.9683 89.9425C49.3104 89.8879 49.5585 89.8079 49.7128 89.7028C49.8672 89.5981 49.9441 89.4425 49.9441 89.2364V89.1986C49.9441 88.7991 49.8194 88.4902 49.5691 88.2715C49.323 88.0528 48.9725 87.9439 48.5182 87.9439C48.0384 87.9439 47.6569 88.0509 47.3732 88.2654C47.0899 88.4757 46.9022 88.7402 46.8104 89.0598L44.3455 88.8579C44.4707 88.2696 44.7167 87.7607 45.0837 87.3322C45.4507 86.8991 45.9241 86.5668 46.504 86.336C47.0876 86.1005 47.763 85.9827 48.5307 85.9827C49.0643 85.9827 49.5751 86.0458 50.0633 86.172C50.5551 86.2981 50.9909 86.4935 51.3706 86.7584C51.7544 87.0229 52.0567 87.3635 52.2778 87.7799C52.4989 88.1916 52.6092 88.6855 52.6092 89.2617V95.7944H50.0818V94.4514H50.0067C49.8528 94.7537 49.6461 95.021 49.3874 95.2519C49.1292 95.479 48.8181 95.6579 48.4556 95.7883C48.0926 95.914 47.6736 95.9771 47.1979 95.9771ZM47.9614 94.1234C48.3532 94.1234 48.6994 94.0458 48.9998 93.8902C49.3002 93.7304 49.5357 93.5159 49.7068 93.2467C49.8774 92.978 49.9632 92.6729 49.9632 92.3327V91.3047C49.8797 91.3593 49.7652 91.4098 49.6192 91.4561C49.4773 91.4981 49.3165 91.5378 49.1375 91.5757C48.9581 91.6093 48.7787 91.6411 48.5993 91.6706C48.4199 91.6958 48.2572 91.7187 48.1116 91.7397C47.7987 91.786 47.5257 91.8598 47.292 91.9603C47.0584 92.0612 46.8771 92.1981 46.7478 92.3706C46.6185 92.5383 46.554 92.7486 46.554 93.0009C46.554 93.3668 46.6852 93.6463 46.9481 93.8397C47.2146 94.029 47.5526 94.1234 47.9614 94.1234ZM55.0792 95.7944V82.8804H57.7438V87.7355H57.8254C57.9422 87.4748 58.111 87.2103 58.3321 86.9411C58.5574 86.6678 58.849 86.4407 59.2078 86.2603C59.5708 86.0752 60.0209 85.9827 60.5591 85.9827C61.2596 85.9827 61.9063 86.1678 62.4983 86.5374C63.0907 86.9033 63.564 87.4561 63.9182 88.1958C64.2728 88.9318 64.4499 89.8542 64.4499 90.964C64.4499 92.0444 64.277 92.957 63.9307 93.7009C63.5891 94.4407 63.1218 95.0019 62.5298 95.3846C61.9415 95.7631 61.2828 95.9519 60.5526 95.9519C60.0357 95.9519 59.5958 95.8659 59.2328 95.6935C58.874 95.521 58.5801 95.3047 58.3506 95.0439C58.1216 94.779 57.9464 94.5121 57.8254 94.243H57.7063V95.7944H55.0792ZM57.6877 90.9514C57.6877 91.5276 57.767 92.0299 57.9255 92.4589C58.0841 92.8874 58.3131 93.2215 58.6135 93.4612C58.9139 93.6967 59.2787 93.8145 59.7085 93.8145C60.1419 93.8145 60.5091 93.6944 60.8094 93.4551C61.1094 93.2112 61.337 92.8748 61.4914 92.4463C61.6494 92.0131 61.7287 91.515 61.7287 90.9514C61.7287 90.3925 61.6518 89.9005 61.4974 89.4762C61.343 89.0514 61.1159 88.7192 60.8155 88.4799C60.5151 88.2402 60.1461 88.1201 59.7085 88.1201C59.2745 88.1201 58.9074 88.236 58.6075 88.4673C58.3112 88.6981 58.0841 89.0262 57.9255 89.4509C57.767 89.8752 57.6877 90.3757 57.6877 90.9514Z" fill="#5EFCE8"/>
<path d="M1.39073 69.1589H68.6093V35.2804M68.6093 1.40186L1.39073 1.40186L1.39073 35.2804" stroke="url(#paint0_linear_23_266)" stroke-width="4"/>
<path d="M38.6982 47.1963V23.407H41.556V44.6408H52.5265V47.1963H38.6982Z" fill="url(#paint1_linear_23_266)"/>
<path d="M30.6825 29.3544C30.5443 28.1773 29.9835 27.2635 29.0001 26.613C28.0168 25.9625 26.8107 25.6373 25.3817 25.6373C24.3369 25.6373 23.4227 25.8076 22.6391 26.1484C21.8632 26.4891 21.2563 26.9576 20.8184 27.5539C20.3882 28.1502 20.1731 28.8278 20.1731 29.5866C20.1731 30.2216 20.3229 30.7676 20.6225 31.2245C20.9298 31.6737 21.3216 32.0492 21.7979 32.3512C22.2742 32.6455 22.7736 32.8895 23.296 33.083C23.8184 33.2689 24.2985 33.4199 24.7364 33.536L27.1333 34.1866C27.7479 34.3492 28.4316 34.5737 29.1845 34.8603C29.945 35.1468 30.671 35.5379 31.3625 36.0335C32.0615 36.5213 32.6377 37.1486 33.091 37.9152C33.5442 38.6819 33.7709 39.6228 33.7709 40.7379C33.7709 42.0234 33.4367 43.185 32.7683 44.2227C32.1076 45.2603 31.1397 46.0851 29.8644 46.6968C28.5968 47.3085 27.0565 47.6145 25.2434 47.6145C23.5533 47.6145 22.0898 47.3398 20.853 46.7898C19.6238 46.24 18.6558 45.4733 17.949 44.4898C17.2499 43.5064 16.8543 42.3641 16.7621 41.0631H19.7121C19.789 41.9614 20.0886 42.7049 20.611 43.2934C21.1411 43.8742 21.8094 44.3079 22.6161 44.5944C23.4304 44.8731 24.3062 45.0125 25.2434 45.0125C26.3343 45.0125 27.3138 44.8344 28.182 44.4782C29.05 44.1143 29.7376 43.6109 30.2446 42.9681C30.7517 42.3177 31.0052 41.5587 31.0052 40.6914C31.0052 39.9016 30.7863 39.2588 30.3484 38.7632C29.9105 38.2676 29.3343 37.8649 28.6198 37.5551C27.9054 37.2454 27.1333 36.9744 26.3036 36.742L23.3997 35.9057C21.5559 35.3714 20.0963 34.6086 19.0207 33.6174C17.9452 32.6261 17.4074 31.329 17.4074 29.726C17.4074 28.3941 17.7647 27.2325 18.4791 26.2413C19.2012 25.2423 20.1692 24.468 21.3831 23.9181C22.6045 23.3606 23.9681 23.0818 25.4739 23.0818C26.995 23.0818 28.3471 23.3567 29.5302 23.9065C30.7133 24.4486 31.6505 25.192 32.3419 26.1367C33.041 27.0815 33.4098 28.154 33.4482 29.3544H30.6825Z" fill="url(#paint2_linear_23_266)"/>
</g>
<defs>
<linearGradient id="paint0_linear_23_266" x1="68.6093" y1="69.1589" x2="29.1798" y2="-12.0848" gradientUnits="userSpaceOnUse">
<stop stop-color="#5EFCE8"/>
<stop offset="1" stop-color="#CE9FFC"/>
</linearGradient>
<linearGradient id="paint1_linear_23_266" x1="35.6955" y1="55.1402" x2="61.8452" y2="49.2624" gradientUnits="userSpaceOnUse">
<stop stop-color="#5EFCE8"/>
<stop offset="1" stop-color="#CE9FFC"/>
</linearGradient>
<linearGradient id="paint2_linear_23_266" x1="14.8346" y1="55.1402" x2="43.882" y2="47.7951" gradientUnits="userSpaceOnUse">
<stop stop-color="#5EFCE8"/>
<stop offset="1" stop-color="#CE9FFC"/>
</linearGradient>
<clipPath id="clip0_23_266">
<rect width="70" height="100" fill="white"/>
</clipPath>
</defs>
</svg>
