<svg width="66" height="15" viewBox="0 0 66 15" fill="none" xmlns="http://www.w3.org/2000/svg">
<path d="M8.3059 6.64616L6.81952 7.05294C6.72602 6.8134 6.58815 6.58063 6.40586 6.35465C6.22823 6.12416 5.98518 5.93432 5.67668 5.78519C5.3682 5.63604 4.97324 5.56145 4.49178 5.56145C3.83274 5.56145 3.28353 5.70834 2.84415 6.00212C2.40946 6.29137 2.19211 6.65972 2.19211 7.10718C2.19211 7.5049 2.34169 7.819 2.64083 8.04951C2.93999 8.28002 3.40741 8.4721 4.04306 8.62575L5.64165 9.00542C6.60451 9.2314 7.32199 9.57714 7.79406 10.0427C8.26616 10.5037 8.50221 11.098 8.50221 11.8257C8.50221 12.4223 8.3246 12.9556 7.96936 13.4256C7.6188 13.8957 7.128 14.2663 6.49699 14.5374C5.86599 14.8086 5.13215 14.9442 4.29547 14.9442C3.19705 14.9442 2.28793 14.7137 1.56812 14.2527C0.848298 13.7917 0.392568 13.1183 0.200928 12.2324L1.77144 11.8528C1.92101 12.4132 2.2038 12.8335 2.6198 13.1138C3.04048 13.394 3.5897 13.5341 4.26744 13.5341C5.03868 13.5341 5.65098 13.3759 6.10438 13.0595C6.56243 12.7386 6.79148 12.3545 6.79148 11.907C6.79148 11.5454 6.66058 11.2426 6.39884 10.9986C6.1371 10.75 5.73512 10.5647 5.1929 10.4427L3.39804 10.0359C2.4118 9.80991 1.68731 9.45965 1.22457 8.98507C0.7665 8.506 0.537466 7.90715 0.537466 7.18854C0.537466 6.60097 0.708073 6.08121 1.04928 5.62925C1.39517 5.17728 1.86492 4.82249 2.45854 4.56487C3.05684 4.30725 3.73458 4.17845 4.49178 4.17845C5.55751 4.17845 6.39416 4.40443 7.00181 4.85639C7.61412 5.30835 8.04881 5.90495 8.3059 6.64616ZM15.7628 14.9442C14.7906 14.9442 13.9376 14.7205 13.2037 14.273C12.4746 13.8256 11.9043 13.1996 11.493 12.3951C11.0863 11.5907 10.883 10.6506 10.883 9.5749C10.883 8.49018 11.0863 7.54333 11.493 6.73431C11.9043 5.92529 12.4746 5.29706 13.2037 4.84963C13.9376 4.40216 14.7906 4.17845 15.7628 4.17845C16.735 4.17845 17.5857 4.40216 18.3149 4.84963C19.0487 5.29706 19.619 5.92529 20.0256 6.73431C20.437 7.54333 20.6426 8.49018 20.6426 9.5749C20.6426 10.6506 20.437 11.5907 20.0256 12.3951C19.619 13.1996 19.0487 13.8256 18.3149 14.273C17.5857 14.7205 16.735 14.9442 15.7628 14.9442ZM15.7628 13.507C16.5013 13.507 17.109 13.3239 17.5857 12.9578C18.0625 12.5917 18.4154 12.1104 18.6444 11.5138C18.8735 10.9172 18.988 10.2709 18.988 9.5749C18.988 8.87887 18.8735 8.2303 18.6444 7.62918C18.4154 7.02806 18.0625 6.54223 17.5857 6.17162C17.109 5.80101 16.5013 5.61569 15.7628 5.61569C15.0243 5.61569 14.4167 5.80101 13.9399 6.17162C13.4631 6.54223 13.1103 7.02806 12.8812 7.62918C12.6522 8.2303 12.5377 8.87887 12.5377 9.5749C12.5377 10.2709 12.6522 10.9172 12.8812 11.5138C13.1103 12.1104 13.4631 12.5917 13.9399 12.9578C14.4167 13.3239 15.0243 13.507 15.7628 13.507ZM28.3588 4.31405V5.66994H22.5537V4.31405H28.3588ZM24.2925 14.7273V2.8768C24.2925 2.28021 24.4373 1.78305 24.7272 1.38532C25.0169 0.987593 25.3932 0.689298 25.8559 0.490434C26.3187 0.291572 26.8071 0.192139 27.3213 0.192139C27.728 0.192139 28.0598 0.223776 28.3168 0.287053C28.5741 0.350325 28.7656 0.409082 28.8919 0.463316L28.415 1.84632C28.3309 1.8192 28.2142 1.78531 28.0645 1.74463C27.9196 1.70396 27.728 1.68362 27.4896 1.68362C26.9427 1.68362 26.5477 1.81695 26.3047 2.0836C26.0663 2.35026 25.9471 2.7412 25.9471 3.25644V14.7273H24.2925ZM35.7562 4.31405V5.66994H30.1753V4.31405H35.7562ZM31.8018 1.8192H33.4566V11.7443C33.4566 12.1963 33.5243 12.5352 33.66 12.7612C33.8002 12.9827 33.9779 13.1318 34.1928 13.2087C34.4125 13.281 34.6438 13.3171 34.8869 13.3171C35.0691 13.3171 35.2189 13.3081 35.3357 13.29C35.4524 13.2674 35.5461 13.2494 35.616 13.2358L35.9525 14.673C35.8405 14.7137 35.6837 14.7544 35.4829 14.7951C35.2818 14.8403 35.0271 14.8629 34.7185 14.8629C34.2512 14.8629 33.7931 14.7657 33.3444 14.5713C32.9004 14.377 32.5312 14.081 32.2368 13.6832C31.9468 13.2855 31.8018 12.7838 31.8018 12.1782V1.8192ZM40.9679 0.842966V14.7273H38.4298V0.842966H40.9679ZM47.0715 14.9374C46.3893 14.9374 45.7747 14.8199 45.2278 14.5849C44.6854 14.3454 44.2555 13.9928 43.9377 13.5273C43.6243 13.0618 43.4678 12.4878 43.4678 11.8053C43.4678 11.2178 43.58 10.7319 43.8043 10.3478C44.0288 9.96356 44.3348 9.65623 44.7229 9.42575C45.1107 9.19524 45.5479 9.02124 46.0339 8.90372C46.5246 8.7817 47.0318 8.69355 47.5553 8.63934C48.1865 8.57604 48.6981 8.51955 49.0907 8.46984C49.4834 8.41559 49.7685 8.33424 49.9462 8.22577C50.1284 8.11278 50.2198 7.93878 50.2198 7.70377V7.66308C50.2198 7.15237 50.063 6.75689 49.7499 6.47669C49.4368 6.19646 48.9858 6.05636 48.3966 6.05636C47.775 6.05636 47.2819 6.18744 46.9173 6.44955C46.5574 6.7117 46.3145 7.0213 46.1882 7.37835L43.8184 7.05294C44.0054 6.42018 44.3139 5.89139 44.7438 5.46654C45.1739 5.03718 45.6996 4.71629 46.3213 4.50386C46.9432 4.28694 47.6303 4.17845 48.3828 4.17845C48.9015 4.17845 49.4179 4.23722 49.9321 4.35471C50.4463 4.47223 50.9162 4.66657 51.3415 4.93775C51.7668 5.20442 52.1081 5.56824 52.3651 6.02923C52.6268 6.49025 52.7577 7.06649 52.7577 7.75799V14.7273H50.3179V13.2968H50.2336C50.0793 13.5861 49.8622 13.8572 49.5815 14.1103C49.3059 14.3589 48.9576 14.56 48.5371 14.7137C48.1211 14.8629 47.6325 14.9374 47.0715 14.9374ZM47.7307 13.1341C48.2401 13.1341 48.6818 13.0369 49.0558 12.8426C49.4298 12.6437 49.7172 12.3816 49.9183 12.0562C50.1239 11.7308 50.2266 11.376 50.2266 10.9918V9.76472C50.1473 9.82799 50.0116 9.88674 49.8201 9.94098C49.6331 9.9952 49.4227 10.0427 49.1889 10.0833C48.9554 10.124 48.7238 10.1602 48.4948 10.1918C48.2657 10.2234 48.0672 10.2506 47.8991 10.2732C47.5203 10.3229 47.1815 10.4042 46.8823 10.5172C46.5833 10.6302 46.3472 10.7884 46.174 10.9918C46.0012 11.1906 45.9148 11.4483 45.9148 11.7647C45.9148 12.2166 46.0855 12.5579 46.4265 12.7883C46.7678 13.0188 47.2024 13.1341 47.7307 13.1341ZM55.8168 14.7273V0.842966H58.355V6.03602H58.4602C58.5911 5.78293 58.7755 5.51399 59.0139 5.22926C59.2525 4.94001 59.5749 4.69368 59.9816 4.49031C60.388 4.28241 60.907 4.17845 61.5379 4.17845C62.37 4.17845 63.1203 4.38408 63.7887 4.79538C64.4617 5.20215 64.9945 5.80551 65.3871 6.6055C65.7845 7.40094 65.9831 8.37719 65.9831 9.53421C65.9831 10.6777 65.789 11.6494 65.4012 12.4494C65.0131 13.2494 64.4851 13.8595 63.8166 14.2798C63.1482 14.7002 62.3912 14.9103 61.545 14.9103C60.9282 14.9103 60.4162 14.8109 60.0095 14.612C59.6028 14.4131 59.2756 14.1736 59.028 13.8934C58.7848 13.6086 58.5956 13.3397 58.4602 13.0866H58.313V14.7273H55.8168ZM58.3059 9.52066C58.3059 10.1941 58.4041 10.7839 58.6004 11.2901C58.8012 11.7963 59.0886 12.1917 59.4626 12.4765C59.8414 12.7567 60.2995 12.8968 60.8368 12.8968C61.3978 12.8968 61.8677 12.7522 62.2462 12.4629C62.6247 12.1692 62.9098 11.7692 63.1016 11.263C63.2979 10.7523 63.3961 10.1715 63.3961 9.52066C63.3961 8.87435 63.3002 8.30036 63.1084 7.79868C62.9169 7.297 62.6317 6.90378 62.2532 6.61905C61.8744 6.33433 61.4026 6.19194 60.8368 6.19194C60.2947 6.19194 59.8344 6.3298 59.4556 6.6055C59.077 6.8812 58.7896 7.26763 58.5933 7.76478C58.4015 8.26194 58.3059 8.84724 58.3059 9.52066Z" fill="url(#paint0_linear_1_1394)"/>
<defs>
<linearGradient id="paint0_linear_1_1394" x1="0.200927" y1="14.9442" x2="17.5744" y2="-22.3556" gradientUnits="userSpaceOnUse">
<stop stop-color="#5EFCE8"/>
<stop offset="1" stop-color="#CE9FFC"/>
</linearGradient>
</defs>
</svg>
