<svg width="27" height="27" viewBox="0 0 27 27" fill="none" xmlns="http://www.w3.org/2000/svg">
<path d="M12.8233 0.00424352C10.6566 0.0303998 5.99821 0.386462 3.39271 2.77681C1.45462 4.69718 0.777933 7.5364 0.69862 11.0472C0.632808 14.5454 0.553495 21.1149 6.88584 22.9036V25.6281C6.88584 25.6281 6.84618 26.7182 7.56675 26.9418C8.45437 27.2228 8.95978 26.3841 9.80353 25.483L11.3771 23.7035C15.7098 24.0638 19.0282 23.2335 19.4105 23.1103C20.2896 22.8294 25.2416 22.1966 26.0508 15.6263C26.881 8.84084 25.6466 4.56556 23.4183 2.63168H23.4048C22.7323 2.01237 20.0298 0.043056 13.9919 0.0211185C13.9919 0.0211185 13.5439 -0.00925648 12.8233 0.00339977V0.00424352ZM12.8976 1.91196C13.5127 1.90774 13.8864 1.9339 13.8864 1.9339C18.997 1.9474 21.4363 3.48556 22.0117 4.00362C23.8882 5.61181 24.8552 9.46606 24.1473 15.131C23.4748 20.6238 19.4586 20.9714 18.7152 21.2085C18.3988 21.3098 15.4761 22.0303 11.7939 21.7932C11.7939 21.7932 9.05175 25.1024 8.1945 25.9546C8.05865 26.104 7.90003 26.1478 7.79878 26.1259C7.65365 26.0905 7.60978 25.9107 7.61821 25.6644L7.64437 21.1427C2.2739 19.6577 2.59031 14.0544 2.64768 11.1274C2.7135 8.20043 3.26278 5.80587 4.89796 4.18418C7.09931 2.19378 11.0548 1.92546 12.8959 1.91196H12.8976ZM13.3026 4.83809C13.2584 4.83764 13.2145 4.84595 13.1735 4.86253C13.1326 4.87911 13.0953 4.90364 13.0638 4.9347C13.0324 4.96576 13.0074 5.00274 12.9903 5.0435C12.9732 5.08427 12.9643 5.12801 12.9642 5.17221C12.9642 5.36121 13.1178 5.51056 13.3026 5.51056C14.1391 5.49465 14.9706 5.64452 15.749 5.95152C16.5273 6.25853 17.2372 6.7166 17.8377 7.29931C19.0637 8.48984 19.6611 10.0896 19.6838 12.1812C19.6838 12.366 19.8332 12.5196 20.0222 12.5196V12.5061C20.1113 12.5063 20.1968 12.4713 20.2602 12.4087C20.3236 12.3461 20.3596 12.261 20.3605 12.172C20.4015 11.1874 20.2418 10.2049 19.8913 9.28395C19.5407 8.36304 19.0065 7.52304 18.3212 6.81499C16.9855 5.50971 15.293 4.83724 13.3026 4.83724V4.83809ZM8.85515 5.61181C8.61633 5.57691 8.37275 5.62485 8.16496 5.74765H8.14725C7.66484 6.03042 7.23027 6.38782 6.85968 6.80656C6.55171 7.16262 6.38465 7.5229 6.34078 7.86968C6.31462 8.0764 6.33234 8.28312 6.39393 8.48056L6.41587 8.49406C6.76265 9.51331 7.21575 10.4937 7.76925 11.4168C8.48223 12.7136 9.35967 13.9129 10.3798 14.985L10.4102 15.0289L10.4583 15.0643L10.4887 15.0998L10.5241 15.1302C11.6001 16.1533 12.8023 17.0348 14.1016 17.7534C15.5866 18.5617 16.4877 18.9439 17.0286 19.1025V19.111C17.1872 19.1591 17.3315 19.181 17.4766 19.181C17.9375 19.1472 18.3739 18.9601 18.7161 18.6494C19.1329 18.2788 19.4863 17.8424 19.7623 17.3577V17.3492C20.0213 16.8615 19.9336 16.4 19.5598 16.0878C18.8112 15.4335 18.0018 14.8523 17.1425 14.3522C16.567 14.04 15.9823 14.229 15.7452 14.5454L15.2398 15.1825C14.9808 15.4989 14.51 15.455 14.51 15.455L14.4965 15.4634C10.9856 14.5665 10.0491 11.0118 10.0491 11.0118C10.0491 11.0118 10.0052 10.5283 10.33 10.282L10.9628 9.77234C11.2657 9.52596 11.4767 8.94209 11.1518 8.36581C10.6552 7.50531 10.0753 6.69565 9.42046 5.94846C9.27731 5.77231 9.07647 5.65247 8.85346 5.61012L8.85515 5.61181ZM13.8864 6.61418C13.4384 6.61418 13.4384 7.29087 13.8907 7.29087C14.4478 7.29991 14.9976 7.41864 15.5088 7.64029C16.02 7.86195 16.4825 8.18217 16.8699 8.58265C17.2233 8.97247 17.4949 9.42925 17.6685 9.92594C17.8421 10.4226 17.9143 10.9491 17.8807 11.4742C17.8823 11.563 17.9186 11.6478 17.9818 11.7102C18.045 11.7727 18.1302 11.8079 18.2191 11.8083L18.2326 11.826C18.3221 11.8254 18.4078 11.7895 18.4711 11.7262C18.5344 11.6629 18.5703 11.5772 18.5709 11.4877C18.6013 10.147 18.1845 9.02225 17.3669 8.12112C16.5451 7.22 15.3984 6.71459 13.9345 6.61418H13.8864ZM14.4408 8.43331C13.9792 8.41981 13.9615 9.10999 14.4188 9.1235C15.5309 9.18087 16.0709 9.74281 16.1418 10.8987C16.1433 10.9865 16.1791 11.0701 16.2416 11.1318C16.304 11.1935 16.3881 11.2282 16.4759 11.2287H16.4894C16.5345 11.2267 16.5788 11.2158 16.6197 11.1966C16.6605 11.1773 16.6971 11.1502 16.7274 11.1166C16.7576 11.0831 16.7809 11.0439 16.7958 11.0012C16.8107 10.9586 16.817 10.9134 16.8142 10.8684C16.7349 9.36143 15.9131 8.51262 14.4543 8.43415H14.4408V8.43331Z" fill="#7B519C"/>
</svg>
